<svg
  width="100%"
  height="100%"
  viewBox="0 0 56 56"
  fill="none"
  xmlns="http://www.w3.org/2000/svg"
>
  <circle
    class="foreground"
    cx="28"
    cy="28"
    r="27.5"
    fill="#F3F3F3"
    stroke="#F3F3F3"
  />
  <path
    class="background"
    fill-rule="evenodd"
    clip-rule="evenodd"
    d="M1 28C1 13.0883 13.0883 1 28 1C42.9117 1 55 13.0883 55 28C55 42.9117 42.9117 55 28 55C13.0883 55 1 42.9117 1 28ZM14.8375 23.4438V41.5H20.575V23.4438H14.8375ZM14.5 17.7063C14.5 19.5625 15.85 20.9125 17.7063 20.9125C19.5625 20.9125 20.9125 19.5625 20.9125 17.7063C20.9125 15.85 19.5625 14.5 17.7063 14.5C16.0188 14.5 14.5 15.85 14.5 17.7063ZM35.7625 41.5H41.1625V30.3625C41.1625 24.7937 37.7875 22.9375 34.5812 22.9375C31.7125 22.9375 29.6875 24.7937 29.1812 25.975V23.4438H23.7812V41.5H29.5187V31.8813C29.5187 29.35 31.2062 28 32.8937 28C34.5812 28 35.7625 28.8438 35.7625 31.7125V41.5Z"
    fill="#193549"
  />
</svg>
