<svg
  width="100%"
  height="100%"
  viewBox="0 0 56 56"
  fill="none"
  xmlns="http://www.w3.org/2000/svg"
>
  <circle
    class="foreground"
    cx="28"
    cy="28"
    r="27.5"
    fill="#F3F3F3"
    stroke="#F3F3F3"
  />
  <path
    class="background"
    fill-rule="evenodd"
    clip-rule="evenodd"
    d="M1 28C1 13.0883 13.0883 1 28 1C42.9117 1 55 13.0883 55 28C55 42.9117 42.9117 55 28 55C13.0883 55 1 42.9117 1 28ZM38.2938 20.4062C39.475 20.2375 40.4875 20.0688 41.5 19.5625C40.825 20.7437 39.8125 21.7563 38.6312 22.4312C38.9688 30.3625 33.2313 38.9688 22.9375 38.9688C19.9 38.9688 17.0312 37.9562 14.5 36.4375C17.3687 36.775 20.4062 35.9312 22.4312 34.4125C19.9 34.4125 17.875 32.725 17.2 30.5312C18.0438 30.7 18.8875 30.5312 19.7313 30.3625C17.2 29.6875 15.3438 27.325 15.3438 24.7938C16.1875 25.1313 17.0312 25.4688 17.875 25.4688C15.5125 23.7812 14.6688 20.575 16.1875 18.0438C19.0562 21.4188 23.1063 23.6125 27.6625 23.7812C26.8188 20.4062 29.5187 17.0312 33.0625 17.0312C34.5812 17.0312 36.1 17.7062 37.1125 18.7188C38.4625 18.3813 39.6437 18.0437 40.6562 17.3687C40.3187 18.7188 39.475 19.7313 38.2938 20.4062Z"
    fill="#193549"
  />
</svg>
