<svg
  width="100%"
  height="100%"
  viewBox="0 0 56 56"
  fill="none"
  xmlns="http://www.w3.org/2000/svg"
>
  <style>
    path {
      stroke-width: 0;
    }
  </style>
  <circle class="background" cx="28" cy="28" r="27.5" stroke="#F3F3F3" />
  <path
    class="foreground"
    fill="#F3F3F3"
    d="M38.5 17H17.5C16.3065 17 15.1619 17.4346 14.318 18.2082C13.4741 18.9818 13 20.031 13 21.125V34.875C13 35.969 13.4741 37.0182 14.318 37.7918C15.1619 38.5654 16.3065 39 17.5 39H38.5C39.6935 39 40.8381 38.5654 41.682 37.7918C42.5259 37.0182 43 35.969 43 34.875V21.125C43 20.031 42.5259 18.9818 41.682 18.2082C40.8381 17.4346 39.6935 17 38.5 17V17ZM37.885 19.75L29.065 27.835C28.9256 27.9639 28.7597 28.0662 28.5769 28.136C28.3941 28.2058 28.198 28.2417 28 28.2417C27.802 28.2417 27.6059 28.2058 27.4231 28.136C27.2403 28.0662 27.0744 27.9639 26.935 27.835L18.115 19.75H37.885ZM40 34.875C40 35.2397 39.842 35.5894 39.5607 35.8473C39.2794 36.1051 38.8978 36.25 38.5 36.25H17.5C17.1022 36.25 16.7206 36.1051 16.4393 35.8473C16.158 35.5894 16 35.2397 16 34.875V21.6887L24.82 29.7737C25.6638 30.5462 26.8075 30.9801 28 30.9801C29.1925 30.9801 30.3362 30.5462 31.18 29.7737L40 21.6887V34.875Z"
  />
</svg>
