<svg
  width="100%"
  height="100%"
  viewBox="0 0 56 56"
  fill="none"
  xmlns="http://www.w3.org/2000/svg"
>
  <circle
    class="foreground"
    cx="28"
    cy="28"
    r="27.5"
    fill="#F3F3F3"
    stroke="#F3F3F3"
  />
  <path
    class="background"
    fill="#193549"
    fill-rule="evenodd"
    clip-rule="evenodd"
    d="M1 28C1 13.0883 13.0883 1 28 1C42.9117 1 55 13.0883 55 28C55 42.9117 42.9117 55 28 55C13.0883 55 1 42.9117 1 28ZM14.5 28.2827C14.5 20.8515 20.5275 14.824 27.9587 14.824C35.3899 14.824 41.4174 20.8515 41.5 28.2827C41.5 34.2277 37.7018 39.2644 32.3348 41.0809C31.6743 41.1635 31.4266 40.7506 31.4266 40.4203V36.7047C31.4266 35.4662 31.0138 34.6405 30.5184 34.2277C33.4909 33.8974 36.6285 32.824 36.6285 27.6222C36.6285 26.1359 36.0504 24.8974 35.2248 23.9891C35.2313 23.9632 35.2404 23.9306 35.2512 23.8918C35.3776 23.4358 35.7443 22.1125 35.0596 20.4387C35.0596 20.4387 33.9037 20.1084 31.344 21.8424C30.2707 21.5946 29.1146 21.4295 27.9587 21.4295C26.8028 21.4295 25.6468 21.5121 24.5734 21.8424C22.0137 20.1084 20.8578 20.4387 20.8578 20.4387C20.1281 22.2225 20.5927 23.6082 20.6878 23.8921L20.6927 23.9066C19.7844 24.8974 19.2889 26.0534 19.2889 27.5396C19.2889 32.7414 22.4266 33.8974 25.3991 34.2277C25.0688 34.5579 24.656 35.1359 24.5734 36.0442C23.8303 36.3745 21.9312 36.9524 20.6927 34.8882C20.6927 34.8882 19.9496 33.5671 18.6284 33.4846C18.6284 33.4846 17.3074 33.4846 18.5459 34.3102C18.5459 34.3102 19.4541 34.7231 20.0321 36.2919C20.0321 36.2919 20.8578 38.9341 24.5734 38.1084V40.4203C24.5734 40.7506 24.3257 41.1635 23.6652 41.0809C18.3807 39.2644 14.5 34.2277 14.5 28.2827Z"
  />
</svg>
